<svg xmlns="http://www.w3.org/2000/svg" viewBox="0 0 1200 675">
  <defs>
    <linearGradient id="bg" x1="0" x2="1" y1="0" y2="1">
      <stop offset="0%" stop-color="#0f172a"/>
      <stop offset="100%" stop-color="#1e1b4b"/>
    </linearGradient>
    <linearGradient id="pill1" x1="0" x2="1" y1="0" y2="0">
      <stop offset="0%" stop-color="#6366f1"/>
      <stop offset="100%" stop-color="#8b5cf6"/>
    </linearGradient>
    <linearGradient id="pill2" x1="0" x2="1" y1="0" y2="0">
      <stop offset="0%" stop-color="#ec4899"/>
      <stop offset="100%" stop-color="#f43f5e"/>
    </linearGradient>
    <linearGradient id="pill3" x1="0" x2="1" y1="0" y2="0">
      <stop offset="0%" stop-color="#14b8a6"/>
      <stop offset="100%" stop-color="#06b6d4"/>
    </linearGradient>
    <linearGradient id="pill4" x1="0" x2="1" y1="0" y2="0">
      <stop offset="0%" stop-color="#f59e0b"/>
      <stop offset="100%" stop-color="#f97316"/>
    </linearGradient>
  </defs>

  <rect width="1200" height="675" fill="url(#bg)"/>
  <rect x="70" y="55" width="1060" height="565" rx="24" fill="rgba(255,255,255,0.04)" stroke="rgba(255,255,255,0.12)"/>

  <text x="110" y="158" fill="#ffffff" font-size="68" font-family="Arial, sans-serif" font-weight="800">Dev Tools</text>
  <text x="110" y="212" fill="#94a3b8" font-size="30" font-family="Arial, sans-serif">Resources hub for developers</text>

  <rect x="110" y="252" width="188" height="42" rx="21" fill="url(#pill1)"/>
  <text x="204" y="279" fill="#fff" font-size="20" font-family="Arial, sans-serif" text-anchor="middle" font-weight="700">Animations</text>

  <rect x="312" y="252" width="140" height="42" rx="21" fill="url(#pill2)"/>
  <text x="382" y="279" fill="#fff" font-size="20" font-family="Arial, sans-serif" text-anchor="middle" font-weight="700">Colors</text>

  <rect x="466" y="252" width="176" height="42" rx="21" fill="url(#pill3)"/>
  <text x="554" y="279" fill="#fff" font-size="20" font-family="Arial, sans-serif" text-anchor="middle" font-weight="700">Extensions</text>

  <rect x="656" y="252" width="176" height="42" rx="21" fill="url(#pill4)"/>
  <text x="744" y="279" fill="#fff" font-size="20" font-family="Arial, sans-serif" text-anchor="middle" font-weight="700">Frameworks</text>

  <!-- card 1 -->
  <rect x="110" y="328" width="230" height="200" rx="16" fill="rgba(99,102,241,0.15)" stroke="rgba(99,102,241,0.4)"/>
  <rect x="130" y="350" width="72" height="72" rx="12" fill="rgba(99,102,241,0.5)"/>
  <rect x="130" y="436" width="155" height="15" rx="7" fill="rgba(255,255,255,0.28)"/>
  <rect x="130" y="460" width="105" height="11" rx="5" fill="rgba(255,255,255,0.14)"/>
  <rect x="130" y="479" width="130" height="11" rx="5" fill="rgba(255,255,255,0.1)"/>

  <!-- card 2 -->
  <rect x="358" y="328" width="230" height="200" rx="16" fill="rgba(236,72,153,0.15)" stroke="rgba(236,72,153,0.4)"/>
  <rect x="378" y="350" width="72" height="72" rx="12" fill="rgba(236,72,153,0.5)"/>
  <rect x="378" y="436" width="155" height="15" rx="7" fill="rgba(255,255,255,0.28)"/>
  <rect x="378" y="460" width="105" height="11" rx="5" fill="rgba(255,255,255,0.14)"/>
  <rect x="378" y="479" width="130" height="11" rx="5" fill="rgba(255,255,255,0.1)"/>

  <!-- card 3 -->
  <rect x="606" y="328" width="230" height="200" rx="16" fill="rgba(20,184,166,0.15)" stroke="rgba(20,184,166,0.4)"/>
  <rect x="626" y="350" width="72" height="72" rx="12" fill="rgba(20,184,166,0.5)"/>
  <rect x="626" y="436" width="155" height="15" rx="7" fill="rgba(255,255,255,0.28)"/>
  <rect x="626" y="460" width="105" height="11" rx="5" fill="rgba(255,255,255,0.14)"/>
  <rect x="626" y="479" width="130" height="11" rx="5" fill="rgba(255,255,255,0.1)"/>

  <!-- card 4 -->
  <rect x="854" y="328" width="230" height="200" rx="16" fill="rgba(245,158,11,0.15)" stroke="rgba(245,158,11,0.4)"/>
  <rect x="874" y="350" width="72" height="72" rx="12" fill="rgba(245,158,11,0.5)"/>
  <rect x="874" y="436" width="155" height="15" rx="7" fill="rgba(255,255,255,0.28)"/>
  <rect x="874" y="460" width="105" height="11" rx="5" fill="rgba(255,255,255,0.14)"/>
  <rect x="874" y="479" width="130" height="11" rx="5" fill="rgba(255,255,255,0.1)"/>
</svg>
